<svg xmlns="http://www.w3.org/2000/svg" id="svg64" version="1.1" height="1714" width="1952"
     preserveAspectRatio="xMinYMin meet" viewBox="0 0 1952 1714">
    <defs id="defs14">
        <linearGradient gradientUnits="userSpaceOnUse" gradientTransform="translate(64 93.02)" y2="1560" y1="1615"
                        x2="181.7" x1="274.6" id="b">
            <stop id="stop4" offset="0" stop-color="#fff"/>
            <stop id="stop6" offset="1" stop-opacity="0" stop-color="#fff"/>
        </linearGradient>
        <linearGradient gradientUnits="userSpaceOnUse" gradientTransform="translate(64 93.02)" y2="1636" y1="1680"
                        x2="1650" x1="1592" id="a">
            <stop id="stop9" offset="0" stop-color="#fff"/>
            <stop id="stop11" offset="1" stop-opacity="0" stop-color="#fff"/>
        </linearGradient>
    </defs>
    <path id="rect18" fill="#fff" d="M0 0h1952v1714H0z"/>
    <g id="g78">
        <path fill="#fff"
              d="M985.2 32.07A969.9 969.9 0 0 0-1 985.37a969.9 969.9 0 0 0 953.3 986.2 969.9 969.9 0 0 0 986.2-953.3 969.9 969.9 0 0 0-953.3-986.2zm-2.567 151.4a818.5 818.5 0 0 1 804.5 832.3 818.5 818.5 0 0 1-832.3 804.5 818.5 818.5 0 0 1-804.5-832.3 818.5 818.5 0 0 1 832.3-804.5z"
              id="path20"/>
        <path fill="#cf0f23"
              d="M983.8 114.1A887.9 887.9 0 0 0 81 986.8a887.9 887.9 0 0 0 872.7 902.8 887.9 887.9 0 0 0 902.8-872.7 887.9 887.9 0 0 0-872.7-902.8zm-2.35 138.6a749.3 749.3 0 0 1 736.5 761.9 749.3 749.3 0 0 1-761.9 736.5 749.3 749.3 0 0 1-736.5-761.9 749.3 749.3 0 0 1 761.9-736.5z"
              id="path22"/>
        <g fill="#cf0f23" transform="translate(-13.97 42.74)" id="g34">
            <path d="M1620 1574c36.06-72.73 74.12-136.2 127.6-209.6 53.51-73.42 123.9-151 192.7-313.2-53.3 218.3-188.9 400.4-320.3 522.8z"
                  id="path24"/>
            <path d="M128.3 724.4c3.171 81.12.132 155-11.69 245.1-11.82 90.08-36.44 191.9-19.19 367.2-57.77-217.2-25.95-442 30.88-612.3z"
                  id="path26"/>
            <path d="M1782 576.5c-55.56-59.19-101.7-117-151.8-192.8-50.11-75.78-98.23-168.8-226.2-290 186 126.2 309.3 316.8 378 482.7z"
                  id="path28"/>
            <path d="M903.9 76.59c-74.89 31.34-145.2 54.33-233.7 74.76-88.53 20.43-192.5 32.96-350.8 110.4 183.3-130.1 405-178.9 584.5-185.2z"
                  id="path30"/>
            <path d="M467.5 1680c77.23 25.02 145.5 53.39 226 95.57 80.46 42.19 167.5 100.4 338 144.8-223.8-20.75-423.8-128.2-564.1-240.3z"
                  id="path32"/>
        </g>
    </g>
    <path id="path36" fill="#cf0f23"
          d="M615.5 1815c80.75 8.334 153.5 21.79 241 46.24 87.5 24.44 184.8 63.21 360.8 70.94-223.2 26.47-441.2-36.82-601.8-117.2z"/>
    <path id="path38" fill="#fff"
          d="M564.4 1215l-371.5 836h1462l-153.6-337c-86.51-189.2-170.7-368.4-230.2-499zm936.8 499c.38-.282.174-.463-.031-.645zm-.031-.645l-.033-.646c-.378.283-.172.465.033.646zm71.85-60.66c-.873.811-1.745 1.624-2.621 2.432.876-.807 1.748-1.62 2.621-2.432zm-5.045 4.648c-.912.834-1.823 1.67-2.738 2.5.915-.83 1.826-1.666 2.738-2.5zm-17.38 15.48c-.322.28-.643.56-.965.838.322-.278.643-.559.965-.838zm-15.95 13.5c-.353.292-.705.586-1.059.877.353-.291.705-.585 1.059-.877z"/>
    <path id="path40" fill="url(#a)"
          d="M1831 1215c-39.7 160.8-123.9 308.6-244.9 425.5-26.84 25.95-55.16 50.01-84.72 72.16l-13.37 12.61 158.2 325.7h297.9v-836z"/>
    <path id="path42" fill="url(#b)"
          d="M-156 1215v836h361.5l182.8-374.8c-12.99-11.92-45.65-44.25-57.97-56.99-109.8-113.6-186.4-253.4-223.6-404.2z"/>
    <path id="path58" fill="#020202"
          d="M760.5 1073l-29.25 66.3-16.78 36.24-23.41 53.47-24.22 53.25-22.92 50.79-15.7 34.84-22.24 51.15-30.01 66.71-4.55-2.18-68.82-30.92-28.5-12.75-7.87-3.12 36.44-80.11 18.8-42.12 10.89-24.61 18.06-40.22 19.5-42.85 14.25-33.41 9.5-20.84 12.14-27.75 16.27-36.5 22.19-50.36 4.23-12.57 131-.73-.03.04"/>
    <path id="path60" fill="#cf0f23"
          d="M711.6 913.8l-4.89-8.61 69.77-.37 61.79.25-.11-.11 6.76 11.4 59.18 97.78 4.86 8.64-10.91.56-103.1 1.38h-15.33l.03-.04-5.4-10.54z"/>
    <path id="path62"
          d="M983.8 299.5l-21.59 43.68-62.46 135.4-193.1 426.6 69.77-.37 61.73.25 4.891 11.34 61 97.73 4.861 8.642 123.3-.95 149.8-.349 1.75 1.408 12.48 26.96 22.38 49.92 23.41 50.56 22.01 47.89 22.15 48.06 21.52 47.29 21.88 47.93 22.47 48.74 22.1 47.83 27.97 60.17 13.43 29.71 12.4 25.94 16.47 36.53c.184.237.366.457.549.692l56.24 122.6a890.307 890.307 0 0 0 91.26-79.88l-50.5-111.4v-.06l-4.13-8.984-7.583-16.62-.035.037-1.652-3.596-21.99-47.01-25.96-57-28.78-62.16-49.15-107.8-28.81-62.11-30.87-68.82-36.4-78.1-25.96-56.99-30.9-67.68-28.67-63.36-36.55-77.96-19.5-43.83-36.66-80.08-17.06-39.71-36.48-79.4-51.17-113.8zm-.83 283.7l146.9 320.3h-24.43l-252.4 1.48-14.81-.11 81.16-187.3 32.16-69.56z"/>
    <script type="text/javascript">
        <![CDATA[
        var deg = 0;
        function myFunction() {
            var img = document.getElementById("g78");
            img.style.transform = "rotate(" + deg + "deg)";
            img.style.transformOrigin = "968.7505px 1000px";
            setTimeout("myFunction()", 10);
            deg = deg + 1;
        }
        myFunction();
        ]]>
    </script>
</svg>
